<svg class="svg-icon" style="width: 10px; height: 10px;vertical-align: middle;fill:#fcfff6; currentColor;overflow: hidden;" viewBox="0 0 1024 1024" version="1.1" xmlns="http://www.w3.org/2000/svg"><path d="M488.96 353.706667a42.666667 42.666667 0 0 0-60.586667 0l-128 128a42.666667 42.666667 0 0 0 0 60.586666l128 128a42.666667 42.666667 0 0 0 60.586667 0 42.666667 42.666667 0 0 0 0-60.586666L390.826667 512l98.133333-97.706667a42.666667 42.666667 0 0 0 0-60.586666z m136.533333 158.293333L725.333333 414.293333a42.666667 42.666667 0 0 0-60.586666-60.586666l-128 128a42.666667 42.666667 0 0 0 0 60.586666l128 128a42.666667 42.666667 0 0 0 60.586666 0 42.666667 42.666667 0 0 0 0-60.586666z"  /></svg>